<svg id="Layer_1" data-name="Layer 1" xmlns="http://www.w3.org/2000/svg" viewBox="0 0 888 120"><defs><style>.cls-1{fill:#0070c0;}</style></defs><title>quanteda_logo_header</title><path class="cls-1" d="M44.17,111.09h-9.9l1.4-19.59H26.81q-3.27,0-5.93-.09a13.45,13.45,0,0,1-4.53-.84,12,12,0,0,1-5.18-3.64A10.47,10.47,0,0,1,9.07,80q0-1.59.09-2.89t.28-2.89l1.77-21.1a13.37,13.37,0,0,1,3.22-7.84,12.3,12.3,0,0,1,7-3.92,20.25,20.25,0,0,1,4.11-.42q2.52,0,5.6,0,3.27,0,5.88.09a13.39,13.39,0,0,1,4.48.84,11.94,11.94,0,0,1,5.18,3.64,10.47,10.47,0,0,1,2.1,6.91q0,1.59-.09,2.89t-.28,2.89Zm-5.6-53.67q.09-.84.14-1.49t0-1.4a3.75,3.75,0,0,0-2.8-4,8.26,8.26,0,0,0-2-.33q-1.07,0-3.22,0H28a17.32,17.32,0,0,0-2.43.19,4.79,4.79,0,0,0-3.27,1.54,5.84,5.84,0,0,0-1.4,3.5L19.24,75.16q-.09.65-.14,1.45c0,.53,0,1,0,1.35a3.67,3.67,0,0,0,2.61,3.92,10.51,10.51,0,0,0,2.61.33q1.68,0,3.08,0h2.43a17.11,17.11,0,0,0,2.43-.19,5,5,0,0,0,3.27-1.45,5.21,5.21,0,0,0,1.4-3.22Z"/><path class="cls-1" d="M85.44,40.9h9.9L92,79.27a13.39,13.39,0,0,1-3.22,7.84,12.31,12.31,0,0,1-7,3.92,19.8,19.8,0,0,1-4.06.42q-2.48,0-5.56,0-3.27,0-5.93-.09a13.45,13.45,0,0,1-4.53-.84,12,12,0,0,1-5.18-3.64A10.47,10.47,0,0,1,54.44,80q0-1.59.09-2.89t.28-2.89L57.71,40.9h10L64.62,75.16q-.09.65-.14,1.45c0,.53,0,1,0,1.35a4.59,4.59,0,0,0,.75,2.61A3.18,3.18,0,0,0,67.23,82a17.21,17.21,0,0,0,2.52.23q1.49,0,2.61,0h2.57a18.68,18.68,0,0,0,2.66-.19,5,5,0,0,0,3.27-1.45,5.21,5.21,0,0,0,1.4-3.22Z"/><path class="cls-1" d="M119.1,40.9q3.27,0,5.88.09a13.4,13.4,0,0,1,4.48.84,11.94,11.94,0,0,1,5.18,3.64,10.47,10.47,0,0,1,2.1,6.91q0,1.59-.09,2.89t-.28,2.89l-1.87,21.1a13.39,13.39,0,0,1-3.22,7.84,12.31,12.31,0,0,1-7,3.92,19.81,19.81,0,0,1-4.06.42q-2.48,0-5.56,0-3.27,0-5.93-.09a13.45,13.45,0,0,1-4.53-.84,11.94,11.94,0,0,1-5.18-3.64A10.47,10.47,0,0,1,97,80q0-2.52.19-4.71T97.54,71a13.21,13.21,0,0,1,3.27-7.84,12.53,12.53,0,0,1,7-3.92,19.77,19.77,0,0,1,3.41-.37q2.19-.09,7.42-.09h5a3.32,3.32,0,0,0,1.91-.61,2.82,2.82,0,0,0,1.07-2.1q.09-.65.14-1.17c0-.34,0-.67,0-1a3.23,3.23,0,0,0-2.61-3.36,9.59,9.59,0,0,0-2.38-.33q-1.45,0-2.85,0H105.38l.84-9.24ZM125.64,68H114.39a17.57,17.57,0,0,0-2.47.19,4.7,4.7,0,0,0-3.27,1.59,6.06,6.06,0,0,0-1.4,3.55,41.8,41.8,0,0,0-.28,4.57,3.75,3.75,0,0,0,2.8,4,9.32,9.32,0,0,0,2.33.33q1.4,0,3.17,0h2.66a15.86,15.86,0,0,0,2.19-.19,5,5,0,0,0,3.27-1.45,5.21,5.21,0,0,0,1.4-3.22Z"/><path class="cls-1" d="M171.49,57.7q.09-.84.14-1.63t0-1.54a3.75,3.75,0,0,0-2.8-4,8.26,8.26,0,0,0-2-.33q-1.07,0-3.22,0h-2.71a17.32,17.32,0,0,0-2.43.19q-4.2.47-4.67,5.32L150.76,91.5h-9.9l3.27-38a13.83,13.83,0,0,1,3.22-8.22,12.3,12.3,0,0,1,7-3.92,20.25,20.25,0,0,1,4.11-.42q2.52,0,5.6,0,3.27,0,5.88.09a13.4,13.4,0,0,1,4.48.84,12,12,0,0,1,5.18,3.64,10.47,10.47,0,0,1,2.1,6.91q0,1.59-.09,3.22t-.28,3.22L178.4,91.5h-9.9Z"/><path class="cls-1" d="M192.19,26.11h9.9L200.53,40.9H214L213.14,50H199.78l-2.24,25.11q-.09.65-.14,1.45c0,.53,0,1,0,1.35A3.67,3.67,0,0,0,200,81.88a6.52,6.52,0,0,0,1.87.23l3.08.09q1.68,0,3.17,0h2.24l-.84,9.24h-3.78q-2.19,0-4.34-.09t-4-.28a10.74,10.74,0,0,1-2.75-.56,12,12,0,0,1-5.18-3.64,10.47,10.47,0,0,1-2.1-6.91q0-1.59.09-2.89t.28-2.89Z"/><path class="cls-1" d="M232.9,91.5q-3.27,0-5.88-.09a13.31,13.31,0,0,1-4.48-.84,11.94,11.94,0,0,1-5.18-3.64,10.47,10.47,0,0,1-2.1-6.91q0-1.59.09-2.89t.28-2.89l1.87-21.1a13.37,13.37,0,0,1,3.22-7.84,12.3,12.3,0,0,1,7-3.92,20,20,0,0,1,4.06-.42q2.47,0,5.55,0,3.27,0,5.93.09a13.53,13.53,0,0,1,4.53.84,12,12,0,0,1,5.18,3.64,10.47,10.47,0,0,1,2.1,6.91q0,1.59-.23,4.11t-.51,4.95a13.39,13.39,0,0,1-3.22,7.84,12.31,12.31,0,0,1-7,3.92,6.62,6.62,0,0,1-1.45.23l-2,.14q-1.21.09-3,.09h-12l-.19,1.59q-.09,1-.14,1.91c0,.59,0,1,0,1.35a3.22,3.22,0,0,0,2.61,3.36,9.5,9.5,0,0,0,2.38.33q1.45,0,2.85,0h14.1l-.84,9.24Zm-6.54-27.07h11.16a17.39,17.39,0,0,0,2.47-.19,4.7,4.7,0,0,0,3.27-1.59,6.07,6.07,0,0,0,1.4-3.55q.19-1.31.28-2.47t.09-2.1a3.75,3.75,0,0,0-2.8-4,9.39,9.39,0,0,0-2.33-.33q-1.4,0-3.17,0h-2.66a16,16,0,0,0-2.19.19,5,5,0,0,0-3.27,1.45A5.19,5.19,0,0,0,227.2,55Z"/><path class="cls-1" d="M295.65,79.27a13.39,13.39,0,0,1-3.22,7.84,12.31,12.31,0,0,1-7,3.92,19.8,19.8,0,0,1-4.06.42q-2.47,0-5.55,0-3.27,0-5.93-.09a13.45,13.45,0,0,1-4.53-.84,12,12,0,0,1-5.18-3.64,10.47,10.47,0,0,1-2.1-6.91q0-1.59.09-2.89t.28-2.89l1.77-21.1a13.37,13.37,0,0,1,3.22-7.84,12.3,12.3,0,0,1,7-3.92,20.25,20.25,0,0,1,4.11-.42q2.52,0,5.6,0h9L290.42,26h9.9Zm-8-21.85q.09-.84.14-1.49t0-1.4a3.75,3.75,0,0,0-2.8-4,8.26,8.26,0,0,0-2-.33q-1.07,0-3.22,0h-2.71a17.32,17.32,0,0,0-2.43.19,4.79,4.79,0,0,0-3.27,1.54,5.84,5.84,0,0,0-1.4,3.5l-1.68,19.79q-.09.65-.14,1.4c0,.5,0,.93,0,1.31a3.75,3.75,0,0,0,2.8,4,9.32,9.32,0,0,0,2.33.33q1.4,0,3.17,0h2.66a15.85,15.85,0,0,0,2.19-.19,5,5,0,0,0,3.27-1.45,5.21,5.21,0,0,0,1.4-3.22Z"/><path class="cls-1" d="M323.35,40.9q3.27,0,5.88.09a13.4,13.4,0,0,1,4.48.84,12,12,0,0,1,5.18,3.64,10.47,10.47,0,0,1,2.1,6.91q0,1.59-.09,2.89t-.28,2.89l-1.87,21.1a13.38,13.38,0,0,1-3.22,7.84,12.31,12.31,0,0,1-7,3.92,19.81,19.81,0,0,1-4.06.42q-2.47,0-5.55,0-3.27,0-5.93-.09a13.45,13.45,0,0,1-4.53-.84,12,12,0,0,1-5.18-3.64,10.47,10.47,0,0,1-2.1-6.91q0-2.52.19-4.71t.37-4.34a13.21,13.21,0,0,1,3.27-7.84,12.53,12.53,0,0,1,7-3.92,19.77,19.77,0,0,1,3.41-.37q2.19-.09,7.42-.09h5a3.32,3.32,0,0,0,1.91-.61,2.82,2.82,0,0,0,1.07-2.1q.09-.65.14-1.17t0-1a3.23,3.23,0,0,0-2.61-3.36,9.59,9.59,0,0,0-2.38-.33q-1.45,0-2.85,0H309.63l.84-9.24ZM329.89,68H318.64a17.58,17.58,0,0,0-2.47.19,4.7,4.7,0,0,0-3.27,1.59,6.05,6.05,0,0,0-1.4,3.55,41.73,41.73,0,0,0-.28,4.57,3.75,3.75,0,0,0,2.8,4,9.31,9.31,0,0,0,2.33.33q1.4,0,3.17,0h2.66a15.85,15.85,0,0,0,2.19-.19,5,5,0,0,0,3.27-1.45A5.21,5.21,0,0,0,329,77.4Z"/><path class="cls-1" d="M60,108.78a2.13,2.13,0,0,1-.4,1.35,1.75,1.75,0,0,1-1,.65l-.42.07.38,2H57.11l-.26-1.93H55.57l-.64,0-.56,0-.43-.06a1.75,1.75,0,0,1-1-.65,2.12,2.12,0,0,1-.4-1.35v-8a2.13,2.13,0,0,1,.4-1.35,1.75,1.75,0,0,1,1-.65,6.89,6.89,0,0,1,1-.1l1.29,0,1.29,0a6.9,6.9,0,0,1,1,.1,1.75,1.75,0,0,1,1,.65,2.13,2.13,0,0,1,.4,1.35Zm-3.75.94H57q.42,0,.71,0a1.18,1.18,0,0,0,.73-.36,1.3,1.3,0,0,0,.23-.84V101.1a1.3,1.3,0,0,0-.23-.84,1.18,1.18,0,0,0-.73-.36q-.3,0-.71,0h-1.5q-.41,0-.7,0a1.18,1.18,0,0,0-.73.36,1.3,1.3,0,0,0-.23.84v7.36a1.3,1.3,0,0,0,.23.84,1.18,1.18,0,0,0,.73.36q.3,0,.7,0Z"/><path class="cls-1" d="M69.57,101.46v4.71q0,1,0,1.68t0,1.06a2.17,2.17,0,0,1-.45,1.16,2.06,2.06,0,0,1-.9.63,3.4,3.4,0,0,1-.89.16q-.48,0-1.1,0t-1.1,0a3.39,3.39,0,0,1-.89-.16,2.05,2.05,0,0,1-.9-.63,2.16,2.16,0,0,1-.45-1.16q0-.35,0-1.06t0-1.68v-4.71H64V107q0,.38,0,.7t0,.57q0,.25,0,.36a1.09,1.09,0,0,0,.82,1.09,1.87,1.87,0,0,0,.54.08h1.53a1.87,1.87,0,0,0,.54-.08,1.09,1.09,0,0,0,.82-1.09c0-.07,0-.19,0-.35s0-.35,0-.57,0-.46,0-.71v-5.49Z"/><path class="cls-1" d="M75.56,101.46l1.1,0a3.41,3.41,0,0,1,.89.17,2.06,2.06,0,0,1,.9.63,2.17,2.17,0,0,1,.45,1.16q0,.17,0,.49t0,.7q0,.38,0,.79v1.51q0,.41,0,.79t0,.69c0,.21,0,.37,0,.49a2.17,2.17,0,0,1-.45,1.16,2.06,2.06,0,0,1-.9.63,3.42,3.42,0,0,1-.9.16l-1.11,0-1.11,0a3.42,3.42,0,0,1-.9-.16,2.05,2.05,0,0,1-.9-.63,2.16,2.16,0,0,1-.45-1.16,3.29,3.29,0,0,1,0-.47v-.93a3.73,3.73,0,0,1,0-.5,2.17,2.17,0,0,1,.45-1.16,2.06,2.06,0,0,1,.9-.63,3.44,3.44,0,0,1,.91-.16l1.12,0h1.3a1,1,0,0,0,.6-.17.77.77,0,0,0,.25-.68v-.4a1.1,1.1,0,0,0-.21-.73,1.26,1.26,0,0,0-.61-.36,2,2,0,0,0-.55-.08h-3v-1.15Zm0,4.71h-.78a2,2,0,0,0-.56.08,1.08,1.08,0,0,0-.59.39,1.36,1.36,0,0,0-.23.69,2.48,2.48,0,0,0,0,.3v.64a2.63,2.63,0,0,0,0,.32,1.36,1.36,0,0,0,.22.68,1.05,1.05,0,0,0,.58.38,1.93,1.93,0,0,0,.55.08H76.3a1.93,1.93,0,0,0,.55-.08,1.08,1.08,0,0,0,.82-1q.05-.57.05-1.32v-1.15Z"/><path class="cls-1" d="M87.22,110.88v-5.49q0-.38,0-.7t0-.57q0-.25,0-.36a1.09,1.09,0,0,0-.82-1.09,1.91,1.91,0,0,0-.54-.08H84.3a1.9,1.9,0,0,0-.54.08,1.09,1.09,0,0,0-.82,1.09q0,.1,0,.36t0,.57q0,.32,0,.71v5.48H81.66v-4.71q0-1,0-1.69t0-1.06a2.17,2.17,0,0,1,.45-1.16,2.06,2.06,0,0,1,.9-.63,3.39,3.39,0,0,1,.89-.17l1.1,0,1.1,0a3.4,3.4,0,0,1,.89.17,2.06,2.06,0,0,1,.9.63,2.17,2.17,0,0,1,.45,1.16q0,.35,0,1.06t0,1.69v4.71Z"/><path class="cls-1" d="M94.64,110.88l-1.1,0a3.4,3.4,0,0,1-.89-.17,2.06,2.06,0,0,1-.9-.63,2.16,2.16,0,0,1-.45-1.16q0-.35,0-1.06t0-1.68v-6.6h1.25v1.91h2.67v1.13H92.49v4.34q0,.38,0,.7t0,.57c0,.17,0,.29,0,.36a1.09,1.09,0,0,0,.82,1.09,1.93,1.93,0,0,0,.55.08h1.29v1.13Z"/><path class="cls-1" d="M99,100.23H97.7V99H99Zm0,10.65H97.7v-9.41H99Z"/><path class="cls-1" d="M105.19,110.88l-1.1,0a3.4,3.4,0,0,1-.89-.17,2.06,2.06,0,0,1-.9-.63,2.16,2.16,0,0,1-.45-1.16q0-.35,0-1.06t0-1.68v-6.6H103v1.91h2.67v1.13H103v4.34q0,.38,0,.7t0,.57c0,.17,0,.29,0,.36a1.09,1.09,0,0,0,.82,1.09,1.93,1.93,0,0,0,.55.08h1.29v1.13Z"/><path class="cls-1" d="M111.34,101.46l1.1,0a3.41,3.41,0,0,1,.89.17,2.06,2.06,0,0,1,.9.63,2.17,2.17,0,0,1,.45,1.16q0,.17,0,.49t0,.7q0,.38,0,.79v1.51q0,.41,0,.79t0,.69c0,.21,0,.37,0,.49a2.17,2.17,0,0,1-.45,1.16,2.06,2.06,0,0,1-.9.63,3.42,3.42,0,0,1-.9.16l-1.11,0-1.11,0a3.42,3.42,0,0,1-.9-.16,2.05,2.05,0,0,1-.9-.63,2.16,2.16,0,0,1-.45-1.16,3.29,3.29,0,0,1,0-.47v-.93a3.73,3.73,0,0,1,0-.5,2.17,2.17,0,0,1,.45-1.16,2.06,2.06,0,0,1,.9-.63,3.44,3.44,0,0,1,.91-.16l1.12,0h1.3a1,1,0,0,0,.6-.17.77.77,0,0,0,.25-.68v-.4a1.1,1.1,0,0,0-.21-.73,1.26,1.26,0,0,0-.61-.36,2,2,0,0,0-.55-.08h-3v-1.15Zm0,4.71h-.78a2,2,0,0,0-.56.08,1.08,1.08,0,0,0-.59.39,1.36,1.36,0,0,0-.23.69,2.48,2.48,0,0,0,0,.3v.64a2.63,2.63,0,0,0,0,.32,1.36,1.36,0,0,0,.22.68,1.05,1.05,0,0,0,.58.38,1.93,1.93,0,0,0,.55.08h1.55a1.93,1.93,0,0,0,.55-.08,1.08,1.08,0,0,0,.82-1q.05-.57.05-1.32v-1.15Z"/><path class="cls-1" d="M120.81,110.88l-1.1,0a3.4,3.4,0,0,1-.89-.17,2.06,2.06,0,0,1-.9-.63,2.16,2.16,0,0,1-.45-1.16q0-.35,0-1.06t0-1.68v-6.6h1.25v1.91h2.67v1.13h-2.67v4.34q0,.38,0,.7t0,.57c0,.17,0,.29,0,.36a1.09,1.09,0,0,0,.82,1.09,1.93,1.93,0,0,0,.55.08h1.29v1.13Z"/><path class="cls-1" d="M125.12,100.23h-1.25V99h1.25Zm0,10.65h-1.25v-9.41h1.25Z"/><path class="cls-1" d="M130.91,110.95a1.76,1.76,0,0,1-1.25-.41,2.41,2.41,0,0,1-.61-1.35l-1.44-7.73h1.29l1.34,7.5a1.42,1.42,0,0,0,.27.7.91.91,0,0,0,.69.2h.12a.88.88,0,0,0,.68-.2,1.6,1.6,0,0,0,.28-.7l1.49-7.5H135l-1.63,7.73a2.54,2.54,0,0,1-.62,1.35,1.73,1.73,0,0,1-1.24.41Z"/><path class="cls-1" d="M143,110.88h-2.4l-1.1,0a3.4,3.4,0,0,1-.89-.17,2.06,2.06,0,0,1-.9-.63,2.16,2.16,0,0,1-.45-1.16q0-.17,0-.49t0-.7q0-.38,0-.79V105.4q0-.41,0-.79c0-.25,0-.49,0-.69s0-.37,0-.49a2.16,2.16,0,0,1,.45-1.16,2.06,2.06,0,0,1,.9-.63,3.42,3.42,0,0,1,.9-.17l1.11,0,1.11,0a3.42,3.42,0,0,1,.9.17,2.06,2.06,0,0,1,.9.63,2.17,2.17,0,0,1,.45,1.16,3.34,3.34,0,0,1,0,.47v.93a3.78,3.78,0,0,1,0,.5,2.17,2.17,0,0,1-.45,1.16,2.06,2.06,0,0,1-.9.63,3.44,3.44,0,0,1-.91.16l-1.12,0h-2.15v1.27a1,1,0,0,0,.82,1.09,1.93,1.93,0,0,0,.55.08H143Zm-2.4-4.71h.78a1.94,1.94,0,0,0,.56-.08,1.08,1.08,0,0,0,.59-.39,1.36,1.36,0,0,0,.23-.69,2.53,2.53,0,0,0,0-.3v-.64a2.71,2.71,0,0,0,0-.32,1.36,1.36,0,0,0-.22-.68,1.06,1.06,0,0,0-.58-.38,2,2,0,0,0-.55-.08h-1.55a2,2,0,0,0-.55.08,1.08,1.08,0,0,0-.82,1q-.05.57-.05,1.32v1.15Z"/><path class="cls-1" d="M157.75,110.88V106.1h-4.83v4.78H151.6V100.79a2.13,2.13,0,0,1,.4-1.35,1.75,1.75,0,0,1,1-.65,6.89,6.89,0,0,1,1-.1l1.29,0,1.29,0a6.9,6.9,0,0,1,1,.1,1.75,1.75,0,0,1,1,.65,2.13,2.13,0,0,1,.4,1.35v10.09Zm-4.83-5.94h4.83V101.1a1.3,1.3,0,0,0-.23-.84,1.18,1.18,0,0,0-.73-.36q-.3,0-.71,0h-1.5q-.41,0-.7,0a1.18,1.18,0,0,0-.73.36,1.3,1.3,0,0,0-.23.84Z"/><path class="cls-1" d="M167.52,110.88v-5.49q0-.38,0-.7t0-.57q0-.25,0-.36a1.09,1.09,0,0,0-.82-1.09,1.91,1.91,0,0,0-.54-.08H164.6a1.9,1.9,0,0,0-.54.08,1.09,1.09,0,0,0-.82,1.09q0,.1,0,.36t0,.57q0,.32,0,.71v5.48H162v-4.71q0-1,0-1.69t0-1.06a2.17,2.17,0,0,1,.45-1.16,2.06,2.06,0,0,1,.9-.63,3.39,3.39,0,0,1,.89-.17l1.1,0,1.1,0a3.4,3.4,0,0,1,.89.17,2.06,2.06,0,0,1,.9.63,2.17,2.17,0,0,1,.45,1.16q0,.35,0,1.06t0,1.69v4.71Z"/><path class="cls-1" d="M174.76,101.46l1.1,0a3.41,3.41,0,0,1,.89.17,2.06,2.06,0,0,1,.9.63,2.17,2.17,0,0,1,.45,1.16q0,.17,0,.49t0,.7q0,.38,0,.79v1.51q0,.41,0,.79t0,.69c0,.21,0,.37,0,.49a2.17,2.17,0,0,1-.45,1.16,2.06,2.06,0,0,1-.9.63,3.42,3.42,0,0,1-.9.16l-1.11,0-1.11,0a3.42,3.42,0,0,1-.9-.16,2.05,2.05,0,0,1-.9-.63,2.16,2.16,0,0,1-.45-1.16,3.29,3.29,0,0,1,0-.47v-.93a3.73,3.73,0,0,1,0-.5,2.17,2.17,0,0,1,.45-1.16,2.06,2.06,0,0,1,.9-.63,3.44,3.44,0,0,1,.91-.16l1.12,0h1.3a1,1,0,0,0,.6-.17.77.77,0,0,0,.25-.68v-.4a1.1,1.1,0,0,0-.21-.73,1.26,1.26,0,0,0-.61-.36,2,2,0,0,0-.55-.08h-3v-1.15Zm0,4.71H174a2,2,0,0,0-.56.08,1.08,1.08,0,0,0-.59.39,1.36,1.36,0,0,0-.23.69,2.48,2.48,0,0,0,0,.3v.64a2.63,2.63,0,0,0,0,.32,1.36,1.36,0,0,0,.22.68,1.05,1.05,0,0,0,.58.38,1.93,1.93,0,0,0,.55.08h1.55a1.93,1.93,0,0,0,.55-.08,1.08,1.08,0,0,0,.82-1q.05-.57.05-1.32v-1.15Z"/><path class="cls-1" d="M180.87,98.69h1.25v9.6a2.47,2.47,0,0,0,0,.3,1.17,1.17,0,0,0,.85,1.09,1.84,1.84,0,0,0,.37.07l.43,0v1.15l-.82,0a2.32,2.32,0,0,1-.68-.15,2,2,0,0,1-.93-.64,2.14,2.14,0,0,1-.44-1.2q-.05-.57-.05-1.13Z"/><path class="cls-1" d="M189.5,112.7h.77a2,2,0,0,0,.55-.08,1.09,1.09,0,0,0,.82-1.09l0-.64H189.5l-1.1,0a3.39,3.39,0,0,1-.89-.17,2.05,2.05,0,0,1-.9-.63,2.16,2.16,0,0,1-.45-1.16q0-.35,0-1.06t0-1.68v-4.69h1.25v5.47q0,.38,0,.71t0,.57q0,.24,0,.35a1.09,1.09,0,0,0,.82,1.09,1.89,1.89,0,0,0,.54.08h1.53a1.9,1.9,0,0,0,.54-.08,1.09,1.09,0,0,0,.82-1.09c0-.1,0-.29,0-.56s0-.58,0-.93v-5.61h1.25v8.67q0,.38,0,.88t0,.84a2.17,2.17,0,0,1-.45,1.16,2.06,2.06,0,0,1-.9.63,3.41,3.41,0,0,1-.89.17l-1.1,0h-2.15V112.7Z"/><path class="cls-1" d="M198.34,109.73h.59a5.37,5.37,0,0,0,.57,0,1,1,0,0,0,.82-.49,2.06,2.06,0,0,0,.19-.9v-.35a1.26,1.26,0,0,0-.3-.95,1.46,1.46,0,0,0-1-.29h-1.3a2,2,0,0,1-2.19-1.44,2.81,2.81,0,0,1-.08-.48q0-.29,0-.56c0-.2,0-.38,0-.56a4,4,0,0,1,.05-.46,1.86,1.86,0,0,1,.92-1.36,3.87,3.87,0,0,1,1.81-.37h2.71v1.13h-2.49a5.37,5.37,0,0,0-.7,0,1.13,1.13,0,0,0-.81.41,1.46,1.46,0,0,0-.25.89v.45a1.63,1.63,0,0,0,.15.72.78.78,0,0,0,.55.41,2.5,2.5,0,0,0,.48.06h1.42a2,2,0,0,1,2.31,2.21v.75a2.61,2.61,0,0,1-.27,1.27,2,2,0,0,1-.76.76,2.2,2.2,0,0,1-.88.26,10.91,10.91,0,0,1-1.1.05h-3v-1.15Z"/><path class="cls-1" d="M205.61,100.23h-1.25V99h1.25Zm0,10.65h-1.25v-9.41h1.25Z"/><path class="cls-1" d="M211,109.73h.59a5.37,5.37,0,0,0,.57,0,1,1,0,0,0,.82-.49,2.06,2.06,0,0,0,.19-.9v-.35a1.26,1.26,0,0,0-.3-.95,1.46,1.46,0,0,0-1-.29h-1.3a2,2,0,0,1-2.19-1.44,2.81,2.81,0,0,1-.08-.48q0-.29,0-.56c0-.2,0-.38,0-.56a4,4,0,0,1,.05-.46,1.86,1.86,0,0,1,.92-1.36,3.87,3.87,0,0,1,1.81-.37h2.71v1.13H211.3a5.37,5.37,0,0,0-.7,0,1.13,1.13,0,0,0-.81.41,1.46,1.46,0,0,0-.25.89v.45a1.63,1.63,0,0,0,.15.72.78.78,0,0,0,.55.41,2.5,2.5,0,0,0,.48.06h1.42a2,2,0,0,1,2.31,2.21v.75a2.61,2.61,0,0,1-.27,1.27,2,2,0,0,1-.76.76,2.2,2.2,0,0,1-.88.26,10.91,10.91,0,0,1-1.1.05h-3v-1.15Z"/><path class="cls-1" d="M225.19,110.9l-1.11,0a3.42,3.42,0,0,1-.9-.16,2.06,2.06,0,0,1-.9-.63,2.16,2.16,0,0,1-.45-1.16q0-.35,0-1.07t0-1.68q0-1,0-1.69t0-1.06a2.16,2.16,0,0,1,.45-1.16,2.06,2.06,0,0,1,.9-.63,3.42,3.42,0,0,1,.9-.17l1.11,0,1.11,0a3.42,3.42,0,0,1,.9.17,2.06,2.06,0,0,1,.9.63,2.17,2.17,0,0,1,.45,1.16q0,.35,0,1.06t0,1.69q0,1,0,1.68t0,1.07a2.17,2.17,0,0,1-.45,1.16,2.06,2.06,0,0,1-.9.63,3.42,3.42,0,0,1-.9.16Zm0-8.32h-.77a1.94,1.94,0,0,0-.55.08,1.09,1.09,0,0,0-.82,1.09q0,.1,0,.36t0,.57q0,.32,0,.71v1.54q0,.38,0,.71t0,.57q0,.24,0,.35a1.09,1.09,0,0,0,.82,1.09,1.93,1.93,0,0,0,.55.08H226a1.93,1.93,0,0,0,.55-.08,1.09,1.09,0,0,0,.82-1.09c0-.07,0-.19,0-.36s0-.36,0-.57,0-.45,0-.7v-1.55q0-.38,0-.7t0-.57q0-.25,0-.36a1.09,1.09,0,0,0-.82-1.09,1.93,1.93,0,0,0-.55-.08Z"/><path class="cls-1" d="M235.7,104.7h-3.07v6.18h-1.25v-7.47q0-1,0-1.69t0-1.06a2.17,2.17,0,0,1,.45-1.16,2.06,2.06,0,0,1,.9-.63,3.41,3.41,0,0,1,.89-.16q.48,0,1.1,0h.92v1.13H234a2,2,0,0,0-.55.08,1.09,1.09,0,0,0-.82,1.09q0,.23,0,.63t0,.82v1.11h3.07Z"/><path class="cls-1" d="M242.17,98.69H249v1.18h-2.76v11h-1.32v-11h-2.76Z"/><path class="cls-1" d="M255.66,110.88h-2.4l-1.1,0a3.4,3.4,0,0,1-.89-.17,2.06,2.06,0,0,1-.9-.63,2.16,2.16,0,0,1-.45-1.16q0-.17,0-.49t0-.7q0-.38,0-.79V105.4q0-.41,0-.79c0-.25,0-.49,0-.69s0-.37,0-.49a2.16,2.16,0,0,1,.45-1.16,2.06,2.06,0,0,1,.9-.63,3.42,3.42,0,0,1,.9-.17l1.11,0,1.11,0a3.42,3.42,0,0,1,.9.17,2.06,2.06,0,0,1,.9.63,2.17,2.17,0,0,1,.45,1.16,3.34,3.34,0,0,1,0,.47v.93a3.78,3.78,0,0,1,0,.5,2.17,2.17,0,0,1-.45,1.16,2.06,2.06,0,0,1-.9.63,3.44,3.44,0,0,1-.91.16l-1.12,0h-2.15v1.27a1,1,0,0,0,.82,1.09,1.93,1.93,0,0,0,.55.08h3.19Zm-2.4-4.71H254a1.94,1.94,0,0,0,.56-.08,1.08,1.08,0,0,0,.59-.39,1.36,1.36,0,0,0,.23-.69,2.53,2.53,0,0,0,0-.3v-.64a2.71,2.71,0,0,0,0-.32,1.36,1.36,0,0,0-.22-.68,1.06,1.06,0,0,0-.58-.38,2,2,0,0,0-.55-.08h-1.55a2,2,0,0,0-.55.08,1.08,1.08,0,0,0-.82,1q-.05.57-.05,1.32v1.15Z"/><path class="cls-1" d="M259.87,107.34a3.62,3.62,0,0,1,.43-.78,1.15,1.15,0,0,1,.69-.45v0a1.06,1.06,0,0,1-.69-.48,4.1,4.1,0,0,1-.45-.95l-1.09-3.18h1.35l1,3.16a2,2,0,0,0,.31.63.73.73,0,0,0,.61.24h.1a.7.7,0,0,0,.6-.24,2.44,2.44,0,0,0,.32-.63l1-3.16h1.32l-1.09,3.18a4.17,4.17,0,0,1-.44.94,1.11,1.11,0,0,1-.7.49v0a1.22,1.22,0,0,1,.69.45,3.24,3.24,0,0,1,.44.78l1.39,3.54h-1.39l-1.23-3.33a1.63,1.63,0,0,0-.36-.63.78.78,0,0,0-.57-.23H262a.81.81,0,0,0-.58.23,1.57,1.57,0,0,0-.37.63l-1.27,3.33h-1.35Z"/><path class="cls-1" d="M271.33,110.88l-1.1,0a3.4,3.4,0,0,1-.89-.17,2.06,2.06,0,0,1-.9-.63,2.16,2.16,0,0,1-.45-1.16q0-.35,0-1.06t0-1.68v-6.6h1.25v1.91h2.67v1.13h-2.67v4.34q0,.38,0,.7t0,.57c0,.17,0,.29,0,.36a1.09,1.09,0,0,0,.82,1.09,1.93,1.93,0,0,0,.55.08h1.29v1.13Z"/><path class="cls-1" d="M281.15,101.46v4.71q0,1,0,1.68t0,1.06a2.17,2.17,0,0,1-.45,1.16,2.06,2.06,0,0,1-.9.63,3.4,3.4,0,0,1-.89.16q-.48,0-1.1,0t-1.1,0a3.39,3.39,0,0,1-.89-.16,2.05,2.05,0,0,1-.9-.63,2.16,2.16,0,0,1-.45-1.16q0-.35,0-1.06t0-1.68v-4.71h1.25V107q0,.38,0,.7t0,.57q0,.25,0,.36a1.09,1.09,0,0,0,.82,1.09,1.87,1.87,0,0,0,.54.08h1.53a1.87,1.87,0,0,0,.54-.08,1.09,1.09,0,0,0,.82-1.09c0-.07,0-.19,0-.35s0-.35,0-.57,0-.46,0-.71v-5.49Z"/><path class="cls-1" d="M287.14,101.46l1.1,0a3.41,3.41,0,0,1,.89.17,2.06,2.06,0,0,1,.9.63,2.17,2.17,0,0,1,.45,1.16q0,.17,0,.49t0,.7q0,.38,0,.79v1.51q0,.41,0,.79t0,.69c0,.21,0,.37,0,.49a2.17,2.17,0,0,1-.45,1.16,2.06,2.06,0,0,1-.9.63,3.42,3.42,0,0,1-.9.16l-1.11,0-1.11,0a3.42,3.42,0,0,1-.9-.16,2.05,2.05,0,0,1-.9-.63,2.16,2.16,0,0,1-.45-1.16,3.29,3.29,0,0,1,0-.47v-.93a3.73,3.73,0,0,1,0-.5,2.17,2.17,0,0,1,.45-1.16,2.06,2.06,0,0,1,.9-.63,3.44,3.44,0,0,1,.91-.16l1.12,0h1.3a1,1,0,0,0,.6-.17.77.77,0,0,0,.25-.68v-.4a1.1,1.1,0,0,0-.21-.73,1.26,1.26,0,0,0-.61-.36,2,2,0,0,0-.55-.08h-3v-1.15Zm0,4.71h-.78a2,2,0,0,0-.56.08,1.08,1.08,0,0,0-.59.39,1.36,1.36,0,0,0-.23.69,2.48,2.48,0,0,0,0,.3v.64a2.63,2.63,0,0,0,0,.32,1.36,1.36,0,0,0,.22.68,1.05,1.05,0,0,0,.58.38,1.93,1.93,0,0,0,.55.08h1.55a1.93,1.93,0,0,0,.55-.08,1.08,1.08,0,0,0,.82-1q.05-.57.05-1.32v-1.15Z"/><path class="cls-1" d="M293.24,98.69h1.25v9.6a2.47,2.47,0,0,0,0,.3,1.17,1.17,0,0,0,.85,1.09,1.84,1.84,0,0,0,.37.07l.43,0v1.15l-.82,0a2.32,2.32,0,0,1-.68-.15,2,2,0,0,1-.93-.64,2.14,2.14,0,0,1-.44-1.2q-.05-.57-.05-1.13Z"/><path class="cls-1" d="M303.41,110.88V100.79a2.13,2.13,0,0,1,.4-1.35,1.75,1.75,0,0,1,1-.65,6.89,6.89,0,0,1,1-.1l1.29,0,1.29,0a6.9,6.9,0,0,1,1,.1,1.75,1.75,0,0,1,1,.65,2.13,2.13,0,0,1,.4,1.35v8a2.13,2.13,0,0,1-.4,1.35,1.75,1.75,0,0,1-1,.65l-.43.06-.56,0-.64,0h-4.39Zm1.32-1.18h3.16q.42,0,.71,0a1.18,1.18,0,0,0,.73-.36,1.3,1.3,0,0,0,.23-.84V101.1a1.3,1.3,0,0,0-.23-.84,1.18,1.18,0,0,0-.73-.36q-.3,0-.71,0h-1.5q-.41,0-.7,0a1.18,1.18,0,0,0-.73.36,1.3,1.3,0,0,0-.23.84Z"/><path class="cls-1" d="M316.86,101.46l1.1,0a3.41,3.41,0,0,1,.89.17,2.06,2.06,0,0,1,.9.63,2.17,2.17,0,0,1,.45,1.16q0,.17,0,.49t0,.7q0,.38,0,.79v1.51q0,.41,0,.79t0,.69c0,.21,0,.37,0,.49a2.17,2.17,0,0,1-.45,1.16,2.06,2.06,0,0,1-.9.63,3.42,3.42,0,0,1-.9.16l-1.11,0-1.11,0a3.42,3.42,0,0,1-.9-.16,2.05,2.05,0,0,1-.9-.63,2.16,2.16,0,0,1-.45-1.16,3.29,3.29,0,0,1,0-.47v-.93a3.73,3.73,0,0,1,0-.5,2.17,2.17,0,0,1,.45-1.16,2.06,2.06,0,0,1,.9-.63,3.44,3.44,0,0,1,.91-.16l1.12,0h1.3a1,1,0,0,0,.6-.17.77.77,0,0,0,.25-.68v-.4a1.1,1.1,0,0,0-.21-.73,1.26,1.26,0,0,0-.61-.36,2,2,0,0,0-.55-.08h-3v-1.15Zm0,4.71h-.78a2,2,0,0,0-.56.08,1.08,1.08,0,0,0-.59.39,1.36,1.36,0,0,0-.23.69,2.48,2.48,0,0,0,0,.3v.64a2.63,2.63,0,0,0,0,.32,1.36,1.36,0,0,0,.22.68,1.05,1.05,0,0,0,.58.38,1.93,1.93,0,0,0,.55.08h1.55a1.93,1.93,0,0,0,.55-.08,1.08,1.08,0,0,0,.82-1q.05-.57.05-1.32v-1.15Z"/><path class="cls-1" d="M326.32,110.88l-1.1,0a3.4,3.4,0,0,1-.89-.17,2.06,2.06,0,0,1-.9-.63,2.16,2.16,0,0,1-.45-1.16q0-.35,0-1.06t0-1.68v-6.6h1.25v1.91h2.67v1.13h-2.67v4.34q0,.38,0,.7t0,.57c0,.17,0,.29,0,.36a1.09,1.09,0,0,0,.82,1.09,1.93,1.93,0,0,0,.55.08h1.29v1.13Z"/><path class="cls-1" d="M332.48,101.46l1.1,0a3.41,3.41,0,0,1,.89.17,2.06,2.06,0,0,1,.9.63,2.17,2.17,0,0,1,.45,1.16q0,.17,0,.49t0,.7q0,.38,0,.79v1.51q0,.41,0,.79t0,.69c0,.21,0,.37,0,.49a2.17,2.17,0,0,1-.45,1.16,2.06,2.06,0,0,1-.9.63,3.42,3.42,0,0,1-.9.16l-1.11,0-1.11,0a3.42,3.42,0,0,1-.9-.16,2.05,2.05,0,0,1-.9-.63,2.16,2.16,0,0,1-.45-1.16,3.29,3.29,0,0,1,0-.47v-.93a3.73,3.73,0,0,1,0-.5,2.17,2.17,0,0,1,.45-1.16,2.06,2.06,0,0,1,.9-.63,3.44,3.44,0,0,1,.91-.16l1.12,0h1.3a1,1,0,0,0,.6-.17.77.77,0,0,0,.25-.68v-.4a1.1,1.1,0,0,0-.21-.73,1.26,1.26,0,0,0-.61-.36,2,2,0,0,0-.55-.08h-3v-1.15Zm0,4.71h-.78a2,2,0,0,0-.56.08,1.08,1.08,0,0,0-.59.39,1.36,1.36,0,0,0-.23.69,2.48,2.48,0,0,0,0,.3v.64a2.63,2.63,0,0,0,0,.32,1.36,1.36,0,0,0,.22.68,1.05,1.05,0,0,0,.58.38,1.93,1.93,0,0,0,.55.08h1.55a1.93,1.93,0,0,0,.55-.08,1.08,1.08,0,0,0,.82-1q.05-.57.05-1.32v-1.15Z"/></svg>