<svg xmlns="http://www.w3.org/2000/svg" width="281" height="90" viewBox="0 0 281 90"><defs><style>.a{fill:#0070c0;}</style></defs><title>quanteda_logo</title><path class="a" d="M30.56,81.53H22.25l1.18-16.46H16q-2.75,0-5-.08a11.3,11.3,0,0,1-3.8-.71,10,10,0,0,1-4.35-3.06,8.79,8.79,0,0,1-1.77-5.8q0-1.33.08-2.43t.24-2.43L2.87,32.83a11.23,11.23,0,0,1,2.71-6.59,10.34,10.34,0,0,1,5.84-3.29,17,17,0,0,1,3.45-.35q2.12,0,4.71,0,2.74,0,4.94.08a11.25,11.25,0,0,1,3.77.71,10,10,0,0,1,4.35,3.06,8.8,8.8,0,0,1,1.76,5.8q0,1.33-.08,2.43t-.24,2.43Zm-4.71-45.1q.08-.71.12-1.26T26,34a3.15,3.15,0,0,0-2.35-3.37A6.94,6.94,0,0,0,22,30.36q-.9,0-2.71,0H17a14.55,14.55,0,0,0-2,.16,4,4,0,0,0-2.75,1.29A4.9,4.9,0,0,0,11,34.71L9.62,51.34q-.08.55-.12,1.22c0,.44,0,.82,0,1.14A3.08,3.08,0,0,0,11.66,57a8.83,8.83,0,0,0,2.2.27q1.41,0,2.59,0h2a14.38,14.38,0,0,0,2-.16,4.19,4.19,0,0,0,2.75-1.22,4.38,4.38,0,0,0,1.18-2.71Z"/><path class="a" d="M65.23,22.55h8.32L70.72,54.79A11.25,11.25,0,0,1,68,61.38a10.34,10.34,0,0,1-5.84,3.29,16.64,16.64,0,0,1-3.41.35q-2.08,0-4.67,0-2.75,0-5-.08a11.3,11.3,0,0,1-3.8-.71A10,10,0,0,1,41,61.22a8.79,8.79,0,0,1-1.76-5.8q0-1.33.08-2.43t.24-2.43l2.43-28h8.39L47.74,51.34q-.08.55-.12,1.22c0,.44,0,.82,0,1.14a3.86,3.86,0,0,0,.63,2.2,2.67,2.67,0,0,0,1.73,1.18,14.46,14.46,0,0,0,2.12.2q1.25,0,2.2,0h2.16a15.69,15.69,0,0,0,2.24-.16,4.19,4.19,0,0,0,2.75-1.22,4.38,4.38,0,0,0,1.18-2.71Z"/><path class="a" d="M93.52,22.55q2.74,0,4.94.08a11.26,11.26,0,0,1,3.77.71,10,10,0,0,1,4.35,3.06,8.8,8.8,0,0,1,1.76,5.8q0,1.33-.08,2.43T108,37.06l-1.57,17.73a11.25,11.25,0,0,1-2.71,6.59,10.34,10.34,0,0,1-5.84,3.29A16.64,16.64,0,0,1,94.5,65q-2.08,0-4.67,0-2.75,0-5-.08a11.3,11.3,0,0,1-3.8-.71,10,10,0,0,1-4.35-3.06,8.79,8.79,0,0,1-1.76-5.8q0-2.12.16-4t.31-3.65a11.1,11.1,0,0,1,2.75-6.59A10.53,10.53,0,0,1,84,37.93a16.61,16.61,0,0,1,2.86-.31q1.84-.08,6.24-.08h4.24A2.79,2.79,0,0,0,99,37a2.37,2.37,0,0,0,.9-1.76q.08-.55.12-1c0-.29,0-.56,0-.82a2.71,2.71,0,0,0-2.2-2.82,8.06,8.06,0,0,0-2-.27q-1.22,0-2.39,0H82l.71-7.77ZM99,45.3H89.56a14.77,14.77,0,0,0-2.08.16,4,4,0,0,0-2.75,1.33,5.09,5.09,0,0,0-1.18,3,35.12,35.12,0,0,0-.24,3.84A3.15,3.15,0,0,0,85.68,57a7.83,7.83,0,0,0,2,.27q1.18,0,2.67,0h2.24a13.32,13.32,0,0,0,1.84-.16,4.19,4.19,0,0,0,2.75-1.22,4.38,4.38,0,0,0,1.18-2.71Z"/><path class="a" d="M137.53,36.67q.08-.71.12-1.37t0-1.29a3.15,3.15,0,0,0-2.35-3.37,6.94,6.94,0,0,0-1.69-.27q-.9,0-2.71,0h-2.27a14.55,14.55,0,0,0-2,.16q-3.53.39-3.92,4.47l-2.59,30.12H111.8l2.75-31.93a11.62,11.62,0,0,1,2.71-6.9,10.34,10.34,0,0,1,5.84-3.29,17,17,0,0,1,3.45-.35q2.12,0,4.71,0,2.75,0,4.94.08a11.26,11.26,0,0,1,3.77.71,10,10,0,0,1,4.35,3.06,8.8,8.8,0,0,1,1.76,5.8q0,1.33-.08,2.71t-.24,2.71l-2.43,27.46H135Z"/><path class="a" d="M154.93,10.12h8.31l-1.31,12.43h11.3l-.71,7.69H161.31l-1.88,21.1q-.08.55-.12,1.22c0,.44,0,.82,0,1.14a3.08,3.08,0,0,0,2.2,3.29,5.48,5.48,0,0,0,1.57.2l2.59.08q1.41,0,2.67,0h1.88l-.71,7.77h-3.18q-1.84,0-3.65-.08t-3.33-.24a9,9,0,0,1-2.31-.47,10,10,0,0,1-4.35-3.06,8.79,8.79,0,0,1-1.77-5.8q0-1.33.08-2.43t.24-2.43Z"/><path class="a" d="M189.13,65.07q-2.75,0-4.94-.08a11.19,11.19,0,0,1-3.77-.71,10,10,0,0,1-4.35-3.06,8.79,8.79,0,0,1-1.76-5.8q0-1.33.08-2.43t.24-2.43l1.57-17.73a11.23,11.23,0,0,1,2.71-6.59,10.34,10.34,0,0,1,5.84-3.29,16.8,16.8,0,0,1,3.41-.35q2.08,0,4.67,0,2.75,0,5,.08a11.36,11.36,0,0,1,3.8.71A10,10,0,0,1,206,26.39a8.8,8.8,0,0,1,1.76,5.8q0,1.33-.2,3.45t-.43,4.16a11.25,11.25,0,0,1-2.71,6.59,10.34,10.34,0,0,1-5.84,3.29,5.56,5.56,0,0,1-1.22.2l-1.69.12q-1,.08-2.51.08H183l-.16,1.33q-.08.86-.12,1.61c0,.5,0,.88,0,1.14A2.71,2.71,0,0,0,184.9,57a8,8,0,0,0,2,.27q1.22,0,2.39,0h11.84l-.71,7.77Zm-5.49-22.75H193a14.61,14.61,0,0,0,2.08-.16,4,4,0,0,0,2.75-1.33,5.1,5.1,0,0,0,1.18-3q.16-1.1.24-2.08t.08-1.76A3.15,3.15,0,0,0,197,30.63a7.89,7.89,0,0,0-2-.27q-1.18,0-2.67,0h-2.24a13.48,13.48,0,0,0-1.84.16,4.19,4.19,0,0,0-2.75,1.22,4.36,4.36,0,0,0-1.18,2.71Z"/><path class="a" d="M241.85,54.79a11.25,11.25,0,0,1-2.71,6.59,10.34,10.34,0,0,1-5.84,3.29,16.63,16.63,0,0,1-3.41.35q-2.08,0-4.67,0-2.75,0-5-.08a11.3,11.3,0,0,1-3.8-.71,10,10,0,0,1-4.35-3.06,8.79,8.79,0,0,1-1.76-5.8q0-1.33.08-2.43t.24-2.43l1.49-17.73a11.23,11.23,0,0,1,2.71-6.59,10.34,10.34,0,0,1,5.84-3.29,17,17,0,0,1,3.45-.35q2.12,0,4.71,0h7.53L237.46,10h8.32Zm-6.75-18.36q.08-.71.12-1.26t0-1.18a3.15,3.15,0,0,0-2.35-3.37,6.94,6.94,0,0,0-1.69-.27q-.9,0-2.71,0h-2.27a14.55,14.55,0,0,0-2,.16,4,4,0,0,0-2.75,1.29,4.9,4.9,0,0,0-1.18,2.94l-1.41,16.63q-.08.55-.12,1.18c0,.42,0,.78,0,1.1A3.15,3.15,0,0,0,221.07,57a7.83,7.83,0,0,0,2,.27q1.18,0,2.67,0h2.24a13.32,13.32,0,0,0,1.84-.16,4.19,4.19,0,0,0,2.75-1.22,4.38,4.38,0,0,0,1.18-2.71Z"/><path class="a" d="M265.13,22.55q2.75,0,4.94.08a11.25,11.25,0,0,1,3.77.71,10,10,0,0,1,4.35,3.06A8.8,8.8,0,0,1,280,32.2q0,1.33-.08,2.43t-.24,2.43l-1.57,17.73a11.25,11.25,0,0,1-2.71,6.59,10.34,10.34,0,0,1-5.84,3.29,16.64,16.64,0,0,1-3.41.35q-2.08,0-4.67,0-2.75,0-5-.08a11.3,11.3,0,0,1-3.8-.71,10,10,0,0,1-4.35-3.06,8.79,8.79,0,0,1-1.76-5.8q0-2.12.16-4t.31-3.65a11.1,11.1,0,0,1,2.75-6.59,10.53,10.53,0,0,1,5.88-3.29,16.61,16.61,0,0,1,2.86-.31q1.84-.08,6.24-.08H269a2.79,2.79,0,0,0,1.61-.51,2.37,2.37,0,0,0,.9-1.76q.08-.55.12-1t0-.82a2.71,2.71,0,0,0-2.2-2.82,8.06,8.06,0,0,0-2-.27q-1.22,0-2.39,0H253.6l.71-7.77Zm5.49,22.75h-9.45a14.77,14.77,0,0,0-2.08.16,4,4,0,0,0-2.75,1.33,5.09,5.09,0,0,0-1.18,3,35.06,35.06,0,0,0-.24,3.84A3.15,3.15,0,0,0,257.29,57a7.83,7.83,0,0,0,2,.27q1.18,0,2.67,0h2.24a13.32,13.32,0,0,0,1.84-.16,4.19,4.19,0,0,0,2.75-1.22,4.38,4.38,0,0,0,1.18-2.71Z"/><path class="a" d="M43.83,79.58a1.79,1.79,0,0,1-.34,1.13,1.47,1.47,0,0,1-.88.55l-.35.06L42.59,83H41.43l-.22-1.62H39.6l-.47,0-.36-.05a1.47,1.47,0,0,1-.88-.55,1.79,1.79,0,0,1-.34-1.13V72.87a1.79,1.79,0,0,1,.34-1.13,1.47,1.47,0,0,1,.88-.55,5.79,5.79,0,0,1,.84-.08l1.09,0,1.09,0a5.8,5.8,0,0,1,.84.08,1.47,1.47,0,0,1,.88.55,1.79,1.79,0,0,1,.34,1.13Zm-3.15.79h.64l.6,0a1,1,0,0,0,.61-.3,1.09,1.09,0,0,0,.19-.71V73.13a1.09,1.09,0,0,0-.19-.71,1,1,0,0,0-.61-.3l-.6,0H40.06l-.59,0a1,1,0,0,0-.61.3,1.09,1.09,0,0,0-.19.71v6.19a1.09,1.09,0,0,0,.19.71,1,1,0,0,0,.61.3l.59,0Z"/><path class="a" d="M51.91,73.44v4q0,.82,0,1.42t0,.89a1.82,1.82,0,0,1-.38,1,1.73,1.73,0,0,1-.76.53,2.86,2.86,0,0,1-.75.14l-.93,0-.93,0a2.85,2.85,0,0,1-.75-.14,1.73,1.73,0,0,1-.76-.53,1.82,1.82,0,0,1-.38-1q0-.29,0-.89t0-1.42v-4h1.05v4.61q0,.32,0,.59t0,.48q0,.21,0,.3a.92.92,0,0,0,.69.92,1.57,1.57,0,0,0,.45.07h1.28a1.58,1.58,0,0,0,.45-.07.92.92,0,0,0,.69-.92c0-.06,0-.16,0-.29s0-.3,0-.48,0-.38,0-.6V73.44Z"/><path class="a" d="M56.94,73.44l.93,0a2.87,2.87,0,0,1,.75.14,1.73,1.73,0,0,1,.76.53,1.82,1.82,0,0,1,.38,1q0,.15,0,.42t0,.59q0,.32,0,.66V78q0,.34,0,.66t0,.58c0,.18,0,.31,0,.41a1.82,1.82,0,0,1-.38,1,1.73,1.73,0,0,1-.76.53,2.87,2.87,0,0,1-.76.14l-.93,0-.93,0a2.87,2.87,0,0,1-.76-.14,1.73,1.73,0,0,1-.76-.53,1.82,1.82,0,0,1-.38-1,2.77,2.77,0,0,1,0-.39v-.78a3.13,3.13,0,0,1,0-.42,1.82,1.82,0,0,1,.38-1,1.73,1.73,0,0,1,.76-.53,2.89,2.89,0,0,1,.77-.14l.94,0H58a.87.87,0,0,0,.5-.15.65.65,0,0,0,.21-.57V75.4a.92.92,0,0,0-.18-.61,1.06,1.06,0,0,0-.51-.31,1.64,1.64,0,0,0-.46-.07H55.07v-1Zm0,4h-.66a1.65,1.65,0,0,0-.47.07.91.91,0,0,0-.5.33,1.14,1.14,0,0,0-.19.58,2.08,2.08,0,0,0,0,.26v.54a2.21,2.21,0,0,0,0,.27,1.15,1.15,0,0,0,.18.57.88.88,0,0,0,.49.32,1.62,1.62,0,0,0,.46.07h1.3a1.62,1.62,0,0,0,.46-.07.91.91,0,0,0,.69-.86q0-.48,0-1.11v-1Z"/><path class="a" d="M66.73,81.35V76.74q0-.32,0-.59t0-.48q0-.21,0-.3a.92.92,0,0,0-.69-.92,1.6,1.6,0,0,0-.45-.07H64.28a1.6,1.6,0,0,0-.45.07.92.92,0,0,0-.69.92q0,.09,0,.3t0,.48q0,.27,0,.6v4.6H62.06v-4q0-.82,0-1.42t0-.89a1.82,1.82,0,0,1,.38-1,1.73,1.73,0,0,1,.76-.53,2.85,2.85,0,0,1,.75-.14l.93,0,.93,0a2.86,2.86,0,0,1,.75.14,1.73,1.73,0,0,1,.76.53,1.82,1.82,0,0,1,.38,1q0,.29,0,.89t0,1.42v4Z"/><path class="a" d="M73,81.35l-.93,0a2.85,2.85,0,0,1-.75-.14,1.73,1.73,0,0,1-.76-.53,1.82,1.82,0,0,1-.38-1q0-.29,0-.89t0-1.42V71.84h1.05v1.61H73.4v.95H71.16V78q0,.32,0,.59t0,.48c0,.14,0,.24,0,.3a.92.92,0,0,0,.69.92,1.62,1.62,0,0,0,.46.07h1.09v.95Z"/><path class="a" d="M76.59,72.4H75.54v-1h1.05Zm0,8.95H75.54V73.44h1.05Z"/><path class="a" d="M81.83,81.35l-.93,0a2.85,2.85,0,0,1-.75-.14,1.73,1.73,0,0,1-.76-.53,1.82,1.82,0,0,1-.38-1q0-.29,0-.89t0-1.42V71.84H80v1.61h2.25v.95H80V78q0,.32,0,.59t0,.48c0,.14,0,.24,0,.3a.92.92,0,0,0,.69.92,1.62,1.62,0,0,0,.46.07h1.09v.95Z"/><path class="a" d="M87,73.44l.93,0a2.87,2.87,0,0,1,.75.14,1.73,1.73,0,0,1,.76.53,1.82,1.82,0,0,1,.38,1q0,.15,0,.42t0,.59q0,.32,0,.66V78q0,.34,0,.66t0,.58c0,.18,0,.31,0,.41a1.82,1.82,0,0,1-.38,1,1.73,1.73,0,0,1-.76.53,2.87,2.87,0,0,1-.76.14l-.93,0-.93,0a2.87,2.87,0,0,1-.76-.14,1.73,1.73,0,0,1-.76-.53,1.82,1.82,0,0,1-.38-1,2.77,2.77,0,0,1,0-.39v-.78a3.13,3.13,0,0,1,0-.42,1.82,1.82,0,0,1,.38-1,1.73,1.73,0,0,1,.76-.53,2.89,2.89,0,0,1,.77-.14l.94,0H88.1a.87.87,0,0,0,.5-.15.65.65,0,0,0,.21-.57V75.4a.92.92,0,0,0-.18-.61,1.06,1.06,0,0,0-.51-.31,1.64,1.64,0,0,0-.46-.07H85.13v-1Zm0,4h-.66a1.65,1.65,0,0,0-.47.07.91.91,0,0,0-.5.33,1.14,1.14,0,0,0-.19.58,2.08,2.08,0,0,0,0,.26v.54a2.21,2.21,0,0,0,0,.27,1.15,1.15,0,0,0,.18.57.88.88,0,0,0,.49.32,1.62,1.62,0,0,0,.46.07h1.3a1.62,1.62,0,0,0,.46-.07.91.91,0,0,0,.69-.86q0-.48,0-1.11v-1Z"/><path class="a" d="M95,81.35l-.93,0a2.85,2.85,0,0,1-.75-.14,1.73,1.73,0,0,1-.76-.53,1.82,1.82,0,0,1-.38-1q0-.29,0-.89t0-1.42V71.84h1.05v1.61h2.25v.95H93.15V78q0,.32,0,.59t0,.48c0,.14,0,.24,0,.3a.92.92,0,0,0,.69.92,1.62,1.62,0,0,0,.46.07h1.09v.95Z"/><path class="a" d="M98.58,72.4H97.53v-1h1.05Zm0,8.95H97.53V73.44h1.05Z"/><path class="a" d="M103.44,81.41a1.48,1.48,0,0,1-1.05-.34,2,2,0,0,1-.51-1.13l-1.21-6.49h1.08l1.12,6.3a1.19,1.19,0,0,0,.23.59.77.77,0,0,0,.58.17h.1a.74.74,0,0,0,.57-.17,1.34,1.34,0,0,0,.23-.59l1.26-6.3h1.07l-1.37,6.49a2.14,2.14,0,0,1-.52,1.13,1.45,1.45,0,0,1-1,.34Z"/><path class="a" d="M113.59,81.35h-2l-.93,0a2.86,2.86,0,0,1-.75-.14,1.73,1.73,0,0,1-.76-.53,1.82,1.82,0,0,1-.38-1q0-.15,0-.42t0-.59q0-.32,0-.66V76.75q0-.34,0-.66c0-.21,0-.41,0-.58s0-.31,0-.41a1.82,1.82,0,0,1,.38-1,1.73,1.73,0,0,1,.76-.53,2.87,2.87,0,0,1,.76-.14l.93,0,.93,0a2.87,2.87,0,0,1,.76.14,1.73,1.73,0,0,1,.76.53,1.82,1.82,0,0,1,.38,1,2.81,2.81,0,0,1,0,.39v.78a3.17,3.17,0,0,1,0,.42,1.82,1.82,0,0,1-.38,1,1.73,1.73,0,0,1-.76.53,2.89,2.89,0,0,1-.77.14l-.94,0h-1.81v1.07a.88.88,0,0,0,.69.92,1.62,1.62,0,0,0,.46.07h2.68Zm-2-4h.66a1.63,1.63,0,0,0,.47-.07.91.91,0,0,0,.5-.33,1.14,1.14,0,0,0,.19-.58,2.12,2.12,0,0,0,0-.26v-.54a2.27,2.27,0,0,0,0-.27,1.15,1.15,0,0,0-.18-.57.89.89,0,0,0-.49-.32,1.64,1.64,0,0,0-.46-.07H111a1.64,1.64,0,0,0-.46.07.91.91,0,0,0-.69.86q0,.48,0,1.11v1Z"/><path class="a" d="M126,81.35v-4h-4.06v4h-1.11V72.87a1.79,1.79,0,0,1,.34-1.13,1.47,1.47,0,0,1,.88-.55,5.79,5.79,0,0,1,.84-.08l1.09,0,1.09,0a5.79,5.79,0,0,1,.84.08,1.47,1.47,0,0,1,.88.55,1.79,1.79,0,0,1,.34,1.13v8.48Zm-4.06-5H126V73.13a1.09,1.09,0,0,0-.19-.71,1,1,0,0,0-.61-.3l-.6,0h-1.26l-.59,0a1,1,0,0,0-.61.3,1.09,1.09,0,0,0-.19.71Z"/><path class="a" d="M134.2,81.35V76.74q0-.32,0-.59t0-.48q0-.21,0-.3a.92.92,0,0,0-.69-.92,1.6,1.6,0,0,0-.45-.07h-1.28a1.6,1.6,0,0,0-.45.07.92.92,0,0,0-.69.92q0,.09,0,.3t0,.48q0,.27,0,.6v4.6h-1.05v-4q0-.82,0-1.42t0-.89a1.82,1.82,0,0,1,.38-1,1.73,1.73,0,0,1,.76-.53,2.85,2.85,0,0,1,.75-.14l.93,0,.93,0a2.86,2.86,0,0,1,.75.14,1.73,1.73,0,0,1,.76.53,1.82,1.82,0,0,1,.38,1q0,.29,0,.89t0,1.42v4Z"/><path class="a" d="M140.29,73.44l.93,0a2.87,2.87,0,0,1,.75.14,1.73,1.73,0,0,1,.76.53,1.82,1.82,0,0,1,.38,1q0,.15,0,.42t0,.59q0,.32,0,.66V78q0,.34,0,.66t0,.58c0,.18,0,.31,0,.41a1.82,1.82,0,0,1-.38,1,1.73,1.73,0,0,1-.76.53,2.87,2.87,0,0,1-.76.14l-.93,0-.93,0a2.87,2.87,0,0,1-.76-.14,1.73,1.73,0,0,1-.76-.53,1.82,1.82,0,0,1-.38-1,2.77,2.77,0,0,1,0-.39v-.78a3.13,3.13,0,0,1,0-.42,1.82,1.82,0,0,1,.38-1,1.73,1.73,0,0,1,.76-.53,2.89,2.89,0,0,1,.77-.14l.94,0h1.09a.87.87,0,0,0,.5-.15.65.65,0,0,0,.21-.57V75.4a.92.92,0,0,0-.18-.61,1.06,1.06,0,0,0-.51-.31,1.64,1.64,0,0,0-.46-.07h-2.53v-1Zm0,4h-.66a1.65,1.65,0,0,0-.47.07.91.91,0,0,0-.5.33,1.14,1.14,0,0,0-.19.58,2.08,2.08,0,0,0,0,.26v.54a2.21,2.21,0,0,0,0,.27,1.15,1.15,0,0,0,.18.57.88.88,0,0,0,.49.32,1.62,1.62,0,0,0,.46.07h1.3a1.62,1.62,0,0,0,.46-.07.91.91,0,0,0,.69-.86q0-.48,0-1.11v-1Z"/><path class="a" d="M145.41,71.11h1.05v8.06a2.08,2.08,0,0,0,0,.26,1,1,0,0,0,.72.92,1.55,1.55,0,0,0,.31.06h.36v1l-.69,0a2,2,0,0,1-.57-.12,1.72,1.72,0,0,1-.78-.54,1.8,1.8,0,0,1-.37-1q0-.48,0-.95Z"/><path class="a" d="M152.67,82.88h.65a1.64,1.64,0,0,0,.46-.07.92.92,0,0,0,.69-.92v-.54h-1.81l-.93,0a2.85,2.85,0,0,1-.75-.14,1.73,1.73,0,0,1-.76-.53,1.82,1.82,0,0,1-.38-1q0-.29,0-.89t0-1.42V73.44h1.05V78q0,.32,0,.6t0,.48q0,.2,0,.29a.92.92,0,0,0,.69.92,1.59,1.59,0,0,0,.45.07h1.28a1.59,1.59,0,0,0,.45-.07.92.92,0,0,0,.69-.92c0-.09,0-.25,0-.47s0-.49,0-.78V73.44h1.05v7.28q0,.32,0,.74t0,.71a1.82,1.82,0,0,1-.38,1,1.73,1.73,0,0,1-.76.53,2.87,2.87,0,0,1-.75.14l-.93,0h-1.81v-.95Z"/><path class="a" d="M160.1,80.39h.5l.48,0a.82.82,0,0,0,.69-.41,1.73,1.73,0,0,0,.16-.76v-.29a1.06,1.06,0,0,0-.26-.8,1.23,1.23,0,0,0-.85-.24h-1.09a1.65,1.65,0,0,1-1.84-1.21,2.36,2.36,0,0,1-.07-.4q0-.24,0-.47c0-.17,0-.32,0-.47a3.4,3.4,0,0,1,0-.39,1.56,1.56,0,0,1,.77-1.15,3.25,3.25,0,0,1,1.52-.31h2.28v.95h-2.09a4.51,4.51,0,0,0-.59,0,1,1,0,0,0-.68.34,1.23,1.23,0,0,0-.21.75v.38a1.37,1.37,0,0,0,.12.61.66.66,0,0,0,.46.34,2.1,2.1,0,0,0,.4.05H161A1.69,1.69,0,0,1,163,78.75v.63a2.19,2.19,0,0,1-.23,1.07,1.65,1.65,0,0,1-.63.64,1.85,1.85,0,0,1-.74.22,9.16,9.16,0,0,1-.93,0H158v-1Z"/><path class="a" d="M166.2,72.4h-1.05v-1h1.05Zm0,8.95h-1.05V73.44h1.05Z"/><path class="a" d="M170.76,80.39h.5l.48,0a.82.82,0,0,0,.69-.41,1.73,1.73,0,0,0,.16-.76v-.29a1.06,1.06,0,0,0-.26-.8,1.23,1.23,0,0,0-.85-.24h-1.09a1.65,1.65,0,0,1-1.84-1.21,2.36,2.36,0,0,1-.07-.4q0-.24,0-.47c0-.17,0-.32,0-.47a3.4,3.4,0,0,1,0-.39,1.56,1.56,0,0,1,.77-1.15,3.25,3.25,0,0,1,1.52-.31h2.28v.95H171a4.51,4.51,0,0,0-.59,0,1,1,0,0,0-.68.34,1.23,1.23,0,0,0-.21.75v.38a1.37,1.37,0,0,0,.12.61.66.66,0,0,0,.46.34,2.1,2.1,0,0,0,.4.05h1.19a1.69,1.69,0,0,1,1.94,1.85v.63a2.19,2.19,0,0,1-.23,1.07,1.65,1.65,0,0,1-.63.64,1.85,1.85,0,0,1-.74.22,9.16,9.16,0,0,1-.93,0h-2.48v-1Z"/><path class="a" d="M182.66,81.37l-.93,0a2.87,2.87,0,0,1-.76-.14,1.73,1.73,0,0,1-.76-.53,1.82,1.82,0,0,1-.38-1q0-.29,0-.9t0-1.41q0-.82,0-1.42t0-.89a1.82,1.82,0,0,1,.38-1,1.73,1.73,0,0,1,.76-.53,2.87,2.87,0,0,1,.76-.14l.93,0,.93,0a2.87,2.87,0,0,1,.76.14,1.73,1.73,0,0,1,.76.53,1.82,1.82,0,0,1,.38,1q0,.29,0,.89t0,1.42q0,.8,0,1.41t0,.9a1.82,1.82,0,0,1-.38,1,1.73,1.73,0,0,1-.76.53,2.87,2.87,0,0,1-.76.14Zm0-7H182a1.63,1.63,0,0,0-.46.07.92.92,0,0,0-.69.92q0,.09,0,.3t0,.48q0,.27,0,.6V78q0,.32,0,.6t0,.48q0,.2,0,.29a.92.92,0,0,0,.69.92,1.62,1.62,0,0,0,.46.07h1.3a1.62,1.62,0,0,0,.46-.07.92.92,0,0,0,.69-.92c0-.06,0-.16,0-.3s0-.3,0-.48,0-.38,0-.59v-1.3q0-.32,0-.59t0-.48q0-.21,0-.3a.92.92,0,0,0-.69-.92,1.63,1.63,0,0,0-.46-.07Z"/><path class="a" d="M191.49,76.16h-2.58v5.2h-1.05V75.08q0-.82,0-1.42t0-.89a1.82,1.82,0,0,1,.38-1,1.73,1.73,0,0,1,.76-.53,2.86,2.86,0,0,1,.75-.14l.93,0h.77v.95h-1.41a1.64,1.64,0,0,0-.46.07.92.92,0,0,0-.69.92q0,.19,0,.53t0,.69v.93h2.58Z"/><path class="a" d="M196.92,71.11h5.75v1h-2.32v9.25h-1.11V72.1h-2.32Z"/><path class="a" d="M208.26,81.35h-2l-.93,0a2.86,2.86,0,0,1-.75-.14,1.73,1.73,0,0,1-.76-.53,1.82,1.82,0,0,1-.38-1q0-.15,0-.42t0-.59q0-.32,0-.66V76.75q0-.34,0-.66c0-.21,0-.41,0-.58s0-.31,0-.41a1.82,1.82,0,0,1,.38-1,1.73,1.73,0,0,1,.76-.53,2.87,2.87,0,0,1,.76-.14l.93,0,.93,0a2.87,2.87,0,0,1,.76.14,1.73,1.73,0,0,1,.76.53,1.82,1.82,0,0,1,.38,1,2.81,2.81,0,0,1,0,.39v.78a3.17,3.17,0,0,1,0,.42,1.82,1.82,0,0,1-.38,1,1.73,1.73,0,0,1-.76.53,2.89,2.89,0,0,1-.77.14l-.94,0h-1.81v1.07a.88.88,0,0,0,.69.92,1.62,1.62,0,0,0,.46.07h2.68Zm-2-4h.66a1.63,1.63,0,0,0,.47-.07.91.91,0,0,0,.5-.33,1.14,1.14,0,0,0,.19-.58,2.12,2.12,0,0,0,0-.26v-.54a2.27,2.27,0,0,0,0-.27,1.15,1.15,0,0,0-.18-.57.89.89,0,0,0-.49-.32,1.64,1.64,0,0,0-.46-.07h-1.3a1.64,1.64,0,0,0-.46.07.91.91,0,0,0-.69.86q0,.48,0,1.11v1Z"/><path class="a" d="M211.8,78.37a3,3,0,0,1,.36-.66,1,1,0,0,1,.58-.38v0a.89.89,0,0,1-.58-.4,3.44,3.44,0,0,1-.38-.8l-.92-2.67H212l.86,2.66a1.66,1.66,0,0,0,.26.53.61.61,0,0,0,.51.2h.09a.59.59,0,0,0,.5-.2,2.05,2.05,0,0,0,.27-.53l.88-2.66h1.11l-.92,2.67a3.51,3.51,0,0,1-.37.79.93.93,0,0,1-.59.41v0a1,1,0,0,1,.58.38,2.72,2.72,0,0,1,.37.66l1.17,3h-1.17l-1-2.8a1.37,1.37,0,0,0-.31-.53.65.65,0,0,0-.48-.19h-.09a.68.68,0,0,0-.49.19,1.32,1.32,0,0,0-.31.53l-1.07,2.8h-1.14Z"/><path class="a" d="M221.42,81.35l-.93,0a2.85,2.85,0,0,1-.75-.14,1.73,1.73,0,0,1-.76-.53,1.82,1.82,0,0,1-.38-1q0-.29,0-.89t0-1.42V71.84h1.05v1.61h2.25v.95h-2.25V78q0,.32,0,.59t0,.48c0,.14,0,.24,0,.3a.92.92,0,0,0,.69.92,1.62,1.62,0,0,0,.46.07h1.09v.95Z"/><path class="a" d="M229.68,73.44v4q0,.82,0,1.42t0,.89a1.82,1.82,0,0,1-.38,1,1.73,1.73,0,0,1-.76.53,2.86,2.86,0,0,1-.75.14l-.93,0-.93,0a2.85,2.85,0,0,1-.75-.14,1.73,1.73,0,0,1-.76-.53,1.82,1.82,0,0,1-.38-1q0-.29,0-.89t0-1.42v-4H225v4.61q0,.32,0,.59t0,.48q0,.21,0,.3a.92.92,0,0,0,.69.92,1.57,1.57,0,0,0,.45.07h1.28a1.58,1.58,0,0,0,.45-.07.92.92,0,0,0,.69-.92c0-.06,0-.16,0-.29s0-.3,0-.48,0-.38,0-.6V73.44Z"/><path class="a" d="M234.71,73.44l.93,0a2.87,2.87,0,0,1,.75.14,1.73,1.73,0,0,1,.76.53,1.82,1.82,0,0,1,.38,1q0,.15,0,.42t0,.59q0,.32,0,.66V78q0,.34,0,.66t0,.58c0,.18,0,.31,0,.41a1.82,1.82,0,0,1-.38,1,1.73,1.73,0,0,1-.76.53,2.87,2.87,0,0,1-.76.14l-.93,0-.93,0a2.87,2.87,0,0,1-.76-.14,1.73,1.73,0,0,1-.76-.53,1.82,1.82,0,0,1-.38-1,2.77,2.77,0,0,1,0-.39v-.78a3.13,3.13,0,0,1,0-.42,1.82,1.82,0,0,1,.38-1,1.73,1.73,0,0,1,.76-.53,2.89,2.89,0,0,1,.77-.14l.94,0h1.09a.87.87,0,0,0,.5-.15.65.65,0,0,0,.21-.57V75.4a.92.92,0,0,0-.18-.61,1.06,1.06,0,0,0-.51-.31,1.64,1.64,0,0,0-.46-.07h-2.53v-1Zm0,4H234a1.65,1.65,0,0,0-.47.07.91.91,0,0,0-.5.33,1.14,1.14,0,0,0-.19.58,2.08,2.08,0,0,0,0,.26v.54a2.21,2.21,0,0,0,0,.27,1.15,1.15,0,0,0,.18.57.88.88,0,0,0,.49.32,1.62,1.62,0,0,0,.46.07h1.3a1.62,1.62,0,0,0,.46-.07.91.91,0,0,0,.69-.86q0-.48,0-1.11v-1Z"/><path class="a" d="M239.83,71.11h1.05v8.06a2.08,2.08,0,0,0,0,.26,1,1,0,0,0,.72.92,1.55,1.55,0,0,0,.31.06h.36v1l-.69,0a2,2,0,0,1-.57-.12,1.72,1.72,0,0,1-.78-.54,1.8,1.8,0,0,1-.37-1q0-.48,0-.95Z"/><path class="a" d="M248.37,81.35V72.87a1.79,1.79,0,0,1,.34-1.13,1.47,1.47,0,0,1,.88-.55,5.79,5.79,0,0,1,.84-.08l1.09,0,1.09,0a5.79,5.79,0,0,1,.84.08,1.47,1.47,0,0,1,.88.55,1.79,1.79,0,0,1,.34,1.13v6.7a1.79,1.79,0,0,1-.34,1.13,1.47,1.47,0,0,1-.88.55l-.36.05-.47,0h-4.22Zm1.11-1h2.66l.6,0a1,1,0,0,0,.61-.3,1.09,1.09,0,0,0,.19-.71V73.13a1.09,1.09,0,0,0-.19-.71,1,1,0,0,0-.61-.3l-.6,0h-1.26l-.59,0a1,1,0,0,0-.61.3,1.09,1.09,0,0,0-.19.71Z"/><path class="a" d="M259.67,73.44l.93,0a2.87,2.87,0,0,1,.75.14,1.73,1.73,0,0,1,.76.53,1.82,1.82,0,0,1,.38,1q0,.15,0,.42t0,.59q0,.32,0,.66V78q0,.34,0,.66t0,.58c0,.18,0,.31,0,.41a1.82,1.82,0,0,1-.38,1,1.73,1.73,0,0,1-.76.53,2.87,2.87,0,0,1-.76.14l-.93,0-.93,0a2.87,2.87,0,0,1-.76-.14,1.73,1.73,0,0,1-.76-.53,1.82,1.82,0,0,1-.38-1,2.77,2.77,0,0,1,0-.39v-.78a3.13,3.13,0,0,1,0-.42,1.82,1.82,0,0,1,.38-1,1.73,1.73,0,0,1,.76-.53,2.89,2.89,0,0,1,.77-.14l.94,0h1.09a.87.87,0,0,0,.5-.15.65.65,0,0,0,.21-.57V75.4a.92.92,0,0,0-.18-.61,1.06,1.06,0,0,0-.51-.31,1.64,1.64,0,0,0-.46-.07h-2.53v-1Zm0,4H259a1.65,1.65,0,0,0-.47.07.91.91,0,0,0-.5.33,1.14,1.14,0,0,0-.19.58,2.08,2.08,0,0,0,0,.26v.54a2.21,2.21,0,0,0,0,.27A1.15,1.15,0,0,0,258,80a.88.88,0,0,0,.49.32,1.62,1.62,0,0,0,.46.07h1.3a1.62,1.62,0,0,0,.46-.07.91.91,0,0,0,.69-.86q0-.48,0-1.11v-1Z"/><path class="a" d="M267.63,81.35l-.93,0a2.85,2.85,0,0,1-.75-.14,1.73,1.73,0,0,1-.76-.53,1.82,1.82,0,0,1-.38-1q0-.29,0-.89t0-1.42V71.84h1.05v1.61h2.25v.95h-2.25V78q0,.32,0,.59t0,.48c0,.14,0,.24,0,.3a.92.92,0,0,0,.69.92,1.62,1.62,0,0,0,.46.07h1.09v.95Z"/><path class="a" d="M272.8,73.44l.93,0a2.87,2.87,0,0,1,.75.14,1.73,1.73,0,0,1,.76.53,1.82,1.82,0,0,1,.38,1q0,.15,0,.42t0,.59q0,.32,0,.66V78q0,.34,0,.66t0,.58c0,.18,0,.31,0,.41a1.82,1.82,0,0,1-.38,1,1.73,1.73,0,0,1-.76.53,2.87,2.87,0,0,1-.76.14l-.93,0-.93,0a2.87,2.87,0,0,1-.76-.14,1.73,1.73,0,0,1-.76-.53,1.82,1.82,0,0,1-.38-1,2.77,2.77,0,0,1,0-.39v-.78a3.13,3.13,0,0,1,0-.42,1.82,1.82,0,0,1,.38-1,1.73,1.73,0,0,1,.76-.53,2.89,2.89,0,0,1,.77-.14l.94,0h1.09a.87.87,0,0,0,.5-.15.65.65,0,0,0,.21-.57V75.4a.92.92,0,0,0-.18-.61,1.06,1.06,0,0,0-.51-.31,1.64,1.64,0,0,0-.46-.07h-2.53v-1Zm0,4h-.66a1.65,1.65,0,0,0-.47.07.91.91,0,0,0-.5.33,1.14,1.14,0,0,0-.19.58,2.08,2.08,0,0,0,0,.26v.54a2.21,2.21,0,0,0,0,.27,1.15,1.15,0,0,0,.18.57.88.88,0,0,0,.49.32,1.62,1.62,0,0,0,.46.07h1.3a1.62,1.62,0,0,0,.46-.07.91.91,0,0,0,.69-.86q0-.48,0-1.11v-1Z"/></svg>