<svg xmlns="http://www.w3.org/2000/svg" width="150" height="38" viewBox="0 0 150 38"><defs><style>.a{fill:#0070c0;}</style></defs><title>quanteda_logo_small</title><path class="a" d="M18.55,36.94H14.36L15,30.22H11.2c-.93,0-1.76,0-2.51,0a5.86,5.86,0,0,1-1.92-.36,5.07,5.07,0,0,1-2.2-1.54,4.45,4.45,0,0,1-.89-2.92c0-.45,0-.86,0-1.23s.07-.78.12-1.23L4.59,14A5.69,5.69,0,0,1,6,10.65,5.18,5.18,0,0,1,8.9,9a8,8,0,0,1,1.74-.18l2.38,0c.92,0,1.75,0,2.49,0a5.49,5.49,0,0,1,1.89.35,5,5,0,0,1,2.2,1.55,4.43,4.43,0,0,1,.89,2.92c0,.45,0,.86,0,1.23s-.07.78-.12,1.22ZM16.18,15.79c0-.24,0-.45.06-.64s0-.38,0-.59a1.6,1.6,0,0,0-1.19-1.7,3.77,3.77,0,0,0-.85-.14l-1.36,0H11.71a7.73,7.73,0,0,0-1,.08,2.05,2.05,0,0,0-1.38.65,2.5,2.5,0,0,0-.59,1.49L8,23.3c0,.18,0,.39,0,.61s0,.42,0,.58A1.55,1.55,0,0,0,9,26.15a4.79,4.79,0,0,0,1.11.14h2.33a7.64,7.64,0,0,0,1-.07,2.12,2.12,0,0,0,1.38-.62,2.19,2.19,0,0,0,.6-1.36Z"/><path class="a" d="M36.38,8.79h4.19L39.15,25a5.71,5.71,0,0,1-1.37,3.32A5.24,5.24,0,0,1,34.84,30a7.88,7.88,0,0,1-1.72.18l-2.36,0c-.92,0-1.75,0-2.51,0a5.75,5.75,0,0,1-1.91-.36,5.07,5.07,0,0,1-2.2-1.54,4.45,4.45,0,0,1-.89-2.92c0-.45,0-.86,0-1.23s.07-.78.12-1.23L24.64,8.79h4.23L27.56,23.3c0,.18,0,.39-.06.61s0,.42,0,.58a1.92,1.92,0,0,0,.32,1.1,1.34,1.34,0,0,0,.87.6,8.9,8.9,0,0,0,1.07.1h2.19a8.47,8.47,0,0,0,1.13-.07,2.12,2.12,0,0,0,1.38-.62A2.18,2.18,0,0,0,35,24.25Z"/><path class="a" d="M51,8.79c.93,0,1.76,0,2.49,0a5.55,5.55,0,0,1,1.9.35,5.09,5.09,0,0,1,2.2,1.55,4.43,4.43,0,0,1,.89,2.92c0,.45,0,.86,0,1.23s-.07.78-.12,1.22L57.5,25a5.71,5.71,0,0,1-1.37,3.32A5.24,5.24,0,0,1,53.19,30a7.88,7.88,0,0,1-1.72.18l-2.36,0c-.92,0-1.76,0-2.51,0a5.75,5.75,0,0,1-1.91-.36,5,5,0,0,1-2.2-1.54,4.45,4.45,0,0,1-.89-2.92c0-.72,0-1.38.08-2s.11-1.23.16-1.84a5.6,5.6,0,0,1,1.38-3.32,5.32,5.32,0,0,1,3-1.66,8.52,8.52,0,0,1,1.44-.16c.62,0,1.67,0,3.14,0h2.14a1.35,1.35,0,0,0,.81-.26,1.2,1.2,0,0,0,.46-.89c0-.18,0-.34,0-.49a3,3,0,0,0,0-.42,1.37,1.37,0,0,0-1.1-1.42,4.38,4.38,0,0,0-1-.14l-1.21,0H45.16l.36-3.91Zm2.77,11.46H49a7.9,7.9,0,0,0-1,.08,2,2,0,0,0-1.39.68,2.53,2.53,0,0,0-.59,1.5,17.5,17.5,0,0,0-.12,1.94A1.6,1.6,0,0,0,47,26.15a4.19,4.19,0,0,0,1,.14h2.47a7,7,0,0,0,.93-.07,2.12,2.12,0,0,0,1.38-.62,2.18,2.18,0,0,0,.59-1.36Z"/><path class="a" d="M73.51,15.91c0-.24,0-.47,0-.7s0-.44,0-.65a1.59,1.59,0,0,0-1.18-1.7,3.87,3.87,0,0,0-.85-.14l-1.37,0H69a7.73,7.73,0,0,0-1,.08A2.16,2.16,0,0,0,66,15l-1.3,15.18H60.54l1.38-16.09a5.9,5.9,0,0,1,1.36-3.48,5.18,5.18,0,0,1,3-1.66A8,8,0,0,1,68,8.81l2.37,0c.92,0,1.76,0,2.49,0a5.55,5.55,0,0,1,1.9.35,5.09,5.09,0,0,1,2.2,1.55,4.43,4.43,0,0,1,.88,2.92c0,.45,0,.91,0,1.37s-.07.91-.12,1.36L76.43,30.22H72.24Z"/><path class="a" d="M82.36,4.16h4.19l-.4,4.63h5.7l-.36,3.87H85.84l-1,10.64a5.25,5.25,0,0,0-.06.61c0,.23,0,.42,0,.58a1.56,1.56,0,0,0,1.11,1.66,3.13,3.13,0,0,0,.79.1l1.3,0h2.3L90,30.22h-1.6c-.62,0-1.23,0-1.84,0s-1.17-.07-1.68-.12a4.29,4.29,0,0,1-1.17-.24,5,5,0,0,1-2.19-1.54,4.45,4.45,0,0,1-.89-2.92c0-.45,0-.86,0-1.23s.06-.78.12-1.23Z"/><path class="a" d="M100.19,30.22c-.92,0-1.75,0-2.49,0a5.79,5.79,0,0,1-1.9-.36,5,5,0,0,1-2.19-1.54,4.45,4.45,0,0,1-.89-2.92c0-.45,0-.86,0-1.23s.07-.78.12-1.23L93.67,14A5.68,5.68,0,0,1,95,10.65,5.18,5.18,0,0,1,98,9a7.88,7.88,0,0,1,1.72-.18l2.35,0c.92,0,1.76,0,2.51,0a5.62,5.62,0,0,1,1.92.35,5,5,0,0,1,2.19,1.55,4.37,4.37,0,0,1,.89,2.92c0,.45,0,1-.1,1.74s-.13,1.41-.21,2.1a5.65,5.65,0,0,1-1.37,3.32,5.21,5.21,0,0,1-2.94,1.66,2.87,2.87,0,0,1-.62.1l-.85.06c-.34,0-.76,0-1.26,0h-5.1l-.08.67q0,.43-.06.81c0,.25,0,.44,0,.57a1.37,1.37,0,0,0,1.11,1.43,4.3,4.3,0,0,0,1,.14h7.17l-.35,3.92ZM97.43,18.75h4.72a6.51,6.51,0,0,0,1-.08,2,2,0,0,0,1.38-.67,2.53,2.53,0,0,0,.59-1.5q.09-.56.12-1.05c0-.33,0-.62,0-.89a1.59,1.59,0,0,0-1.18-1.7,4.36,4.36,0,0,0-1-.14l-1.35,0h-1.12a7.28,7.28,0,0,0-.93.08,2.07,2.07,0,0,0-2,2Z"/><path class="a" d="M127.11,25a5.71,5.71,0,0,1-1.36,3.32,5.23,5.23,0,0,1-3,1.66,7.88,7.88,0,0,1-1.72.18l-2.35,0c-.92,0-1.76,0-2.51,0a5.86,5.86,0,0,1-1.92-.36,5,5,0,0,1-2.19-1.54,4.39,4.39,0,0,1-.89-2.92c0-.45,0-.86,0-1.23s.06-.78.11-1.23l.76-8.93a5.61,5.61,0,0,1,1.36-3.32,5.18,5.18,0,0,1,3-1.66,7.84,7.84,0,0,1,1.73-.18l2.38,0h3.79l.56-6.33h4.19Zm-3.4-9.25c0-.24.05-.45.06-.64s0-.38,0-.59a1.6,1.6,0,0,0-1.19-1.7,3.68,3.68,0,0,0-.85-.14l-1.36,0h-1.15a7.86,7.86,0,0,0-1,.08,2.05,2.05,0,0,0-1.38.65,2.5,2.5,0,0,0-.59,1.49l-.71,8.38a5.11,5.11,0,0,0-.06.59c0,.21,0,.4,0,.56a1.59,1.59,0,0,0,1.18,1.7,4.36,4.36,0,0,0,1,.14h2.47a7,7,0,0,0,.93-.07,2.07,2.07,0,0,0,2-2Z"/><path class="a" d="M139.2,8.79c.92,0,1.75,0,2.49,0a5.55,5.55,0,0,1,1.9.35,5,5,0,0,1,2.19,1.55,4.43,4.43,0,0,1,.89,2.92c0,.45,0,.86,0,1.23s-.07.78-.12,1.22L145.72,25a5.71,5.71,0,0,1-1.36,3.32,5.23,5.23,0,0,1-3,1.66,7.88,7.88,0,0,1-1.72.18l-2.35,0c-.92,0-1.76,0-2.51,0a5.86,5.86,0,0,1-1.92-.36,5,5,0,0,1-2.19-1.54,4.39,4.39,0,0,1-.89-2.92c0-.72,0-1.38.08-2l.15-1.84a5.6,5.6,0,0,1,1.39-3.32,5.32,5.32,0,0,1,3-1.66,8.66,8.66,0,0,1,1.45-.16c.61,0,1.66,0,3.14,0h2.13a1.35,1.35,0,0,0,.81-.26,1.17,1.17,0,0,0,.46-.89c0-.18,0-.34.06-.49s0-.28,0-.42a1.37,1.37,0,0,0-1.11-1.42,4.3,4.3,0,0,0-1-.14l-1.2,0h-5.78l.36-3.91ZM142,20.25H137.2a7.9,7.9,0,0,0-1,.08,2,2,0,0,0-1.38.68,2.53,2.53,0,0,0-.59,1.5,17.5,17.5,0,0,0-.12,1.94,1.59,1.59,0,0,0,1.18,1.7,4.36,4.36,0,0,0,1,.14h2.47a7,7,0,0,0,.93-.07,2.07,2.07,0,0,0,2-2Z"/></svg>